<?xml version="1.0" encoding="utf-8"?>
<!-- Generator: Adobe Illustrator 16.0.0, SVG Export Plug-In . SVG Version: 6.00 Build 0)  -->
<!DOCTYPE svg PUBLIC "-//W3C//DTD SVG 1.1//EN" "http://www.w3.org/Graphics/SVG/1.1/DTD/svg11.dtd">
<svg version="1.1" id="Capa_1" xmlns="http://www.w3.org/2000/svg" xmlns:xlink="http://www.w3.org/1999/xlink" x="0px" y="0px"
	 width="612px" height="539.726px" viewBox="0 0 612 539.726" enable-background="new 0 0 612 539.726" xml:space="preserve">
<g>
	<g>
		
			<image overflow="visible" opacity="0.75" enable-background="new    " width="142" height="206" xlink:href="C0CB4533.png"  transform="matrix(1 0 0 0.9951 255.5 171.8413)">
		</image>
		<g>
			<path fill="#E62A2C" d="M313.289,342.775c0-5.041,0.313-10.809,0.945-17.291c0.63-6.484,1.484-13.51,2.565-21.074
				c-6.848-0.178-13.872-0.043-21.072,0.404c-7.208,0.451-14.144,1.756-20.805,3.918c-1.444,0.539-2.613,0.813-3.512,0.813
				c-1.444,0-2.655-0.582-3.647-1.758c-0.988-1.17-1.756-2.521-2.297-4.053c-0.541-1.527-0.945-3.063-1.215-4.592
				c-0.271-1.529-0.405-2.746-0.405-3.648c14.589-18.008,29.085-36.292,43.497-54.844c14.408-18.549,27.194-38.095,38.365-58.627
				c0.718-1.081,1.709-1.622,2.972-1.622c4.144,0,8.467,0.722,12.971,2.162c4.5,1.444,8.374,3.512,11.616,6.214
				c1.438,0.904,2.16,1.803,2.16,2.702c0,0.541-0.181,0.992-0.54,1.351c-0.722,0.903-1.351,1.667-1.891,2.296
				c-0.541,0.633-1.081,1.397-1.622,2.296c-2.16,3.782-4.369,8.78-6.619,14.995c-2.255,6.214-4.505,13.15-6.754,20.804
				c-2.255,7.657-4.505,15.716-6.755,24.18c-2.254,8.468-4.28,16.933-6.079,25.396c3.96,0.904,6.395,1.984,7.295,3.244
				c0.718,0.902,1.528,2.701,2.435,5.402c0.896,2.701,1.618,5.402,2.159,8.104c0.54,2.701,0.719,4.998,0.54,6.891
				c-0.181,1.891-1.081,2.564-2.699,2.025c-1.985-0.541-4.188-1.034-6.62-1.486c-2.433-0.447-4.997-0.854-7.7-1.217
				c-1.984,9.908-3.513,18.912-4.592,27.02c-1.081,8.105-1.622,14.32-1.622,18.643c0,2.162-1.081,3.242-3.241,3.242
				c-1.622,0-3.47-0.358-5.539-1.08c-2.073-0.719-4.01-1.621-5.809-2.701c-1.805-1.081-3.335-2.34-4.596-3.782
				S313.289,344.216,313.289,342.775z M336.255,216.063c-8.287,12.968-16.528,25.219-24.722,36.743
				c-8.198,11.529-16.887,22.787-26.072,33.77c5.762-1.258,11.571-2.201,17.427-2.834c5.852-0.631,11.66-1.125,17.427-1.486
				C324.995,257.763,330.31,235.696,336.255,216.063z"/>
		</g>
	</g>
	<g>
		
			<image overflow="visible" opacity="0.75" enable-background="new    " width="250" height="152" xlink:href="C0CB4531.png"  transform="matrix(1 0 0 0.9934 13.5 198.8384)">
		</image>
		<g>
			<g>
				<path fill="#4AC1EE" d="M22.166,319.458c0-5.223,0.466-11.623,1.398-19.205s2.173-15.537,3.729-23.867
					c1.553-8.325,3.292-16.593,5.221-24.797c1.926-8.204,3.883-15.569,5.873-22.095c1.987-6.526,3.884-11.84,5.687-15.941
					c1.8-4.102,3.385-6.153,4.754-6.153c0.868,0,2.237,0.28,4.102,0.839c1.864,0.559,3.665,1.212,5.407,1.958
					c1.739,0.746,3.292,1.556,4.661,2.424c1.366,0.871,2.051,1.678,2.051,2.424c0,0.373-0.125,0.685-0.373,0.933
					c-0.499,0.623-0.933,1.15-1.305,1.584c-0.373,0.437-0.685,0.964-0.933,1.585c-1.491,2.61-3.015,6.031-4.568,10.255
					c-1.556,4.227-3.108,8.889-4.661,13.984c-1.556,5.098-3.077,10.566-4.568,16.408c-1.492,5.844-2.861,11.625-4.102,17.34
					c1.367-2.858,2.797-5.688,4.289-8.483c1.492-2.796,3.17-5.5,5.034-8.111c1.865-2.733,3.883-5.063,6.06-6.992
					c2.173-1.926,4.443-2.89,6.806-2.89c1.987,0,3.883,0.592,5.687,1.771c1.8,1.183,3.417,2.61,4.848,4.289
					c1.427,1.678,2.578,3.481,3.449,5.407c0.868,1.929,1.305,3.636,1.305,5.127c0,5.221-0.932,10.721-2.797,16.501
					c-1.864,5.777-4.288,11.404-7.271,16.875c4.35-3.231,8.483-7.239,12.399-12.026c3.916-4.785,7.179-10.535,9.789-17.248
					c0.373-0.746,0.868-1.211,1.491-1.397c0.621-0.187,1.241-0.154,1.865,0.094c0.621,0.25,1.119,0.685,1.492,1.306
					c0.373,0.623,0.373,1.305,0,2.051c-3.234,8.082-7.677,15.289-13.332,21.629c-5.658,6.338-12.338,11.56-20.043,15.662
					c-3.729,4.973-7.583,9.043-11.56,12.211c-3.979,3.172-7.645,4.756-11,4.756c-0.997,0-2.115-0.373-3.356-1.119
					c-1.244-0.744-2.237-1.428-2.983-2.051c0,0.623-0.032,1.307-0.093,2.051c-0.064,0.746-0.778,1.119-2.145,1.119
					c-1.119,0-2.395-0.248-3.822-0.746c-1.43-0.494-2.768-1.117-4.009-1.863c-1.244-0.745-2.301-1.614-3.169-2.61
					C22.6,321.447,22.166,320.455,22.166,319.458z M58.151,264.082c-3.729,5.594-7.085,11.373-10.068,17.339
					c-2.61,5.222-4.819,10.566-6.619,16.037c-1.803,5.471-3.141,11.063-4.009,16.779c1.739-0.248,3.636-0.561,5.687-0.934
					c2.051-0.373,4.195-0.932,6.432-1.678c1.739-2.359,3.479-5.281,5.221-8.765c1.739-3.479,3.292-7.207,4.662-11.188
					c1.366-3.975,2.517-8.109,3.449-12.398c0.932-4.287,1.521-8.482,1.771-12.584c0.122-2.858-0.499-4.629-1.865-5.314
					C61.443,260.695,59.891,261.596,58.151,264.082z"/>
				<path fill="#4AC1EE" d="M82.761,314.982c0.248-1.24,0.402-2.424,0.466-3.543c0.062-1.117,0.216-2.297,0.466-3.541
					c1.366-8.824,3.292-17.869,5.78-27.129c2.485-9.26,5.343-17.621,8.577-25.079c0.746-1.614,1.678-2.424,2.797-2.424
					c0.868,0,1.894,0.187,3.076,0.56c1.18,0.373,2.331,0.839,3.45,1.398s2.144,1.151,3.076,1.771
					c0.932,0.624,1.707,1.183,2.331,1.678c0.994,0.746,1.18,1.649,0.56,2.704c-0.624,1.058-1.058,2.083-1.305,3.077
					c-1.617,4.102-3.141,8.454-4.568,13.051c-1.43,4.602-2.768,9.201-4.008,13.797c-1.244,4.602-2.331,9.043-3.263,13.332
					c-0.932,4.289-1.71,8.111-2.331,11.469c-0.25,1.368-0.064,2.113,0.56,2.236c0.62,0.125,1.305-0.188,2.051-0.934
					c2.858-2.857,5.529-6.246,8.018-10.16c2.485-3.916,4.754-7.986,6.805-12.213c2.051-4.226,3.916-8.392,5.594-12.494
					c1.678-4.103,3.138-7.769,4.381-11c0.373-0.746,0.869-1.242,1.492-1.492c0.621-0.248,1.241-0.248,1.865,0
					c0.621,0.25,1.086,0.685,1.398,1.306c0.309,0.623,0.341,1.305,0.093,2.051c-0.871,2.115-1.99,4.912-3.356,8.391
					c-1.369,3.48-2.983,7.242-4.848,11.279c-1.864,4.041-3.916,8.111-6.153,12.213c-2.237,4.104-4.6,7.805-7.085,11.096
					c-2.488,3.296-5.066,5.998-7.738,8.109c-2.675,2.115-5.314,3.17-7.924,3.17c-1.617,0-3.077-0.371-4.382-1.117
					c-1.305-0.746-2.424-1.739-3.356-2.981c-0.932-1.241-1.617-2.61-2.051-4.104C82.791,317.966,82.636,316.474,82.761,314.982z
					 M112.78,219.706c1.739-3.479,3.231-5.221,4.475-5.221c0.993,0.125,2.639,0.685,4.941,1.678c2.298,0.996,4.317,2.115,6.06,3.356
					c2.61,1.742,2.858,4.289,0.746,7.645c-0.871,1.369-2.083,3.234-3.636,5.593c-1.556,2.363-3.202,4.662-4.941,6.899
					c-1.742,2.237-3.449,4.195-5.127,5.873c-1.678,1.678-3.076,2.517-4.195,2.517c-2.61,0.125-4.134-1.086-4.568-3.636
					c-0.437-2.546-0.28-5.468,0.466-8.763c0.746-3.292,1.739-6.494,2.983-9.602C111.224,222.939,112.156,220.824,112.78,219.706z"/>
				<path fill="#4AC1EE" d="M154.357,257.741c1.739-1.739,3.636-3.138,5.687-4.195c2.051-1.055,4.008-0.961,5.873,0.28
					c1.492,0.871,2.826,2.051,4.009,3.542c1.18,1.492,2.144,3.108,2.89,4.848c0.993,2.115,1.334,4.134,1.025,6.06
					c-0.312,1.929-1.151,3.886-2.517,5.874c-2.488,3.48-5.378,6.807-8.67,9.977c-3.295,3.168-6.931,5.873-10.908,8.109
					c0,0.996,0.216,2.891,0.653,5.688c0.434,2.797,1.054,5.752,1.864,8.855c0.807,3.107,1.8,5.846,2.983,8.205
					c1.18,2.361,2.517,3.543,4.009,3.543c0.373,0,1.055-0.373,2.051-1.119c2.733-2.857,5.221-6.246,7.458-10.16
					c2.237-3.916,4.256-7.986,6.06-12.215c1.801-4.225,3.417-8.391,4.848-12.492c1.427-4.104,2.765-7.768,4.009-11
					c0.373-0.746,0.868-1.242,1.491-1.492c0.621-0.248,1.241-0.248,1.865,0c0.621,0.25,1.119,0.686,1.492,1.305
					c0.373,0.625,0.373,1.308,0,2.051c-0.871,2.115-1.929,4.912-3.17,8.392c-1.244,3.481-2.735,7.242-4.475,11.281
					c-1.742,4.041-3.607,8.11-5.594,12.213c-1.99,4.102-4.166,7.803-6.526,11.094c-2.363,3.296-4.818,5.998-7.365,8.111
					c-2.549,2.114-5.127,3.17-7.738,3.17c-2.861,0-5.439-1.056-7.738-3.17c-2.301-2.113-4.288-4.691-5.966-7.738
					c-1.678-3.045-3.015-6.308-4.009-9.789c-0.997-3.479-1.617-6.586-1.865-9.322c-3.481,7.459-5.844,14.422-7.085,20.885
					c-0.25,1.117-0.437,2.27-0.56,3.449c-0.125,1.182-0.186,2.33-0.186,3.447c0,1.492-0.746,2.238-2.238,2.238
					c-1.119,0-2.395-0.248-3.822-0.746c-1.43-0.496-2.768-1.119-4.009-1.865c-1.244-0.744-2.301-1.613-3.169-2.609
					c-0.871-0.992-1.305-1.986-1.305-2.982c0-5.469,0.466-12.024,1.398-19.67c0.932-7.646,2.173-15.631,3.729-23.959
					c1.553-8.327,3.292-16.563,5.221-24.706c1.926-8.14,3.883-15.443,5.873-21.908c1.987-6.461,3.884-11.714,5.687-15.755
					c1.8-4.038,3.385-6.06,4.754-6.06c0.868,0,2.237,0.28,4.102,0.839c1.864,0.559,3.665,1.212,5.407,1.958
					c1.739,0.746,3.292,1.556,4.661,2.424c1.366,0.871,2.051,1.678,2.051,2.424c0,0.373-0.125,0.685-0.373,0.933
					c-0.499,0.623-0.933,1.15-1.305,1.584c-0.373,0.437-0.685,0.964-0.933,1.585c-1.864,3.234-3.761,7.616-5.687,13.145
					c-1.929,5.532-3.822,11.624-5.687,18.272c-1.864,6.651-3.636,13.582-5.314,20.789c-1.678,7.211-3.14,14.172-4.381,20.883
					c2.858-5.967,5.966-12.026,9.323-18.178C145.594,267.903,149.631,262.466,154.357,257.741z M155.476,264.455
					c-3.606,3.979-6.712,8.39-9.322,13.238c-2.61,4.848-5.099,9.633-7.458,14.355c1.614-1.119,3.45-2.639,5.5-4.568
					c2.051-1.926,4.009-4.037,5.873-6.338c1.865-2.301,3.572-4.756,5.127-7.365c1.553-2.609,2.64-5.156,3.263-7.646
					c0.373-1.241,0.373-2.267,0-3.076C158.086,262.249,157.09,262.714,155.476,264.455z"/>
				<path fill="#4AC1EE" d="M198.17,327.662c-5.593,0-10.162-1.088-13.704-3.264c-3.542-2.174-6.185-5.002-7.924-8.482
					c-1.742-3.479-2.735-7.488-2.983-12.026c-0.25-4.535,0.154-9.138,1.212-13.798c1.055-4.659,2.578-9.258,4.568-13.797
					c1.987-4.535,4.35-8.544,7.085-12.025c2.732-3.479,5.687-6.308,8.856-8.484c3.169-2.173,6.433-3.263,9.789-3.263
					c1.739,0,3.758,0.53,6.06,1.585c2.299,1.058,4.443,2.456,6.433,4.195c1.987,1.742,3.665,3.668,5.034,5.78
					c1.366,2.115,2.051,4.166,2.051,6.153c0,4.353-1.119,8.39-3.356,12.119s-5.098,6.992-8.577,9.789
					c-3.481,2.797-7.243,4.974-11.28,6.524c-4.041,1.558-7.863,2.33-11.467,2.33c-0.25,4.976,0.466,9.201,2.144,12.68
					c1.678,3.48,4.69,5.222,9.043,5.222c3.729,0,7.365-1.679,10.907-5.032c3.543-3.357,6.835-7.488,9.882-12.4
					c3.044-4.906,5.78-10.098,8.204-15.568c2.424-5.467,4.443-10.314,6.06-14.543c0.248-0.746,0.713-1.211,1.398-1.397
					c0.682-0.187,1.305-0.154,1.865,0.094c0.56,0.25,1.025,0.685,1.398,1.306c0.373,0.623,0.373,1.306,0,2.052
					c-1.742,4.6-3.948,10.008-6.619,16.221c-2.674,6.217-5.812,12.152-9.416,17.807c-3.606,5.658-7.645,10.441-12.119,14.357
					C208.239,325.705,203.391,327.662,198.17,327.662z M205.442,263.708c-1.865,1.369-3.636,3.263-5.314,5.687
					c-1.678,2.424-3.202,5.127-4.568,8.11c-1.369,2.984-2.517,6.152-3.449,9.51c-0.932,3.357-1.585,6.59-1.958,9.695
					c2.485,0,5.002-0.869,7.551-2.609c2.546-1.738,4.848-4.01,6.898-6.807c2.051-2.797,3.697-5.994,4.941-9.603
					c1.241-3.604,1.865-7.271,1.865-11c0-1.987-0.652-3.263-1.958-3.822C208.146,262.31,206.809,262.589,205.442,263.708z"/>
				<path fill="#4AC1EE" d="M89.5,254.84"/>
			</g>
		</g>
	</g>
	<g>
		<g opacity="0.75">
			<path fill="#4AC1EE" d="M308.5,311.339"/>
		</g>
		<g>
			<path fill="#4AC1EE" d="M301.5,304.339"/>
		</g>
	</g>
	<g>
		
			<image overflow="visible" opacity="0.75" enable-background="new    " width="196" height="197" xlink:href="C0CB4537.png"  transform="matrix(1 0 0 0.9949 402.5 198.8394)">
		</image>
		<g>
			<g>
				<path fill="#4AC1EE" d="M410.715,309.388c0.495-5.965,1.334-12.646,2.519-20.041c1.181-7.396,2.518-14.854,4.009-22.375
					c1.492-7.521,3.138-14.852,4.939-22.001c1.802-7.146,3.604-13.519,5.407-19.111c1.8-5.594,3.511-10.068,5.127-13.425
					c1.614-3.356,3.045-5.034,4.289-5.034c0.868,0,2.205,0.28,4.008,0.839c1.803,0.559,3.604,1.212,5.407,1.958
					c1.801,0.746,3.386,1.556,4.755,2.424c1.366,0.871,2.051,1.678,2.051,2.424c0,0.373-0.125,0.685-0.371,0.933
					c-0.498,0.623-0.934,1.15-1.307,1.584c-0.373,0.437-0.746,0.964-1.119,1.585c-2.36,4.227-4.816,10.319-7.362,18.272
					c-2.552,7.956-4.976,16.565-7.271,25.824c-2.302,9.261-4.353,18.458-6.153,27.595c-1.804,9.136-3.141,16.998-4.009,23.586
					c-0.251,2.115-0.125,3.326,0.373,3.636c0.495,0.313,1.428-0.215,2.797-1.584c2.732-2.856,5.281-6.246,7.646-10.162
					c2.357-3.916,4.536-7.924,6.523-12.024c1.987-4.103,3.79-8.142,5.407-12.121c1.614-3.978,2.983-7.521,4.104-10.627
					c0.372-0.746,0.866-1.242,1.49-1.492c0.62-0.248,1.241-0.248,1.864,0c0.621,0.25,1.119,0.685,1.492,1.306
					c0.372,0.623,0.372,1.307,0,2.051c-0.871,2.115-1.99,4.912-3.356,8.391c-1.367,3.48-2.981,7.242-4.848,11.279
					c-1.864,4.041-3.916,8.111-6.153,12.215c-2.235,4.103-4.6,7.803-7.085,11.094c-2.486,3.296-5.032,5.998-7.645,8.111
					c-2.61,2.113-5.285,3.17-8.02,3.17c-2.608,0-4.6-0.621-5.967-1.865c-1.369-1.239-2.33-2.764-2.89-4.567
					c-0.562-1.801-0.839-3.758-0.839-5.873C410.528,313.248,410.59,311.253,410.715,309.388z"/>
				<path fill="#4AC1EE" d="M441.104,314.982c0.248-1.24,0.402-2.424,0.468-3.543c0.062-1.117,0.216-2.297,0.467-3.541
					c1.366-8.824,3.292-17.869,5.779-27.129c2.483-9.26,5.344-17.621,8.575-25.079c0.746-1.614,1.68-2.424,2.799-2.424
					c0.866,0,1.894,0.187,3.074,0.56c1.182,0.373,2.331,0.839,3.449,1.398c1.119,0.559,2.146,1.151,3.077,1.771
					c0.932,0.624,1.707,1.183,2.33,1.678c0.993,0.746,1.18,1.649,0.56,2.704c-0.623,1.058-1.058,2.083-1.306,3.077
					c-1.616,4.102-3.14,8.454-4.567,13.051c-1.431,4.602-2.768,9.201-4.009,13.797c-1.244,4.602-2.331,9.043-3.263,13.332
					c-0.934,4.289-1.711,8.111-2.331,11.469c-0.251,1.368-0.064,2.113,0.56,2.236c0.62,0.125,1.307-0.188,2.053-0.934
					c2.856-2.857,5.527-6.246,8.018-10.16c2.485-3.916,4.754-7.986,6.806-12.213c2.053-4.226,3.915-8.392,5.595-12.494
					c1.679-4.103,3.138-7.769,4.382-11c0.373-0.746,0.868-1.242,1.492-1.492c0.618-0.248,1.239-0.248,1.862,0
					c0.62,0.25,1.087,0.685,1.398,1.306c0.309,0.623,0.341,1.305,0.093,2.051c-0.871,2.115-1.989,4.912-3.354,8.391
					c-1.369,3.48-2.983,7.242-4.85,11.279c-1.864,4.041-3.916,8.111-6.151,12.213c-2.237,4.104-4.603,7.805-7.085,11.096
					c-2.488,3.296-5.066,5.998-7.738,8.109c-2.674,2.115-5.313,3.17-7.924,3.17c-1.617,0-3.076-0.371-4.384-1.117
					c-1.305-0.746-2.424-1.739-3.354-2.981c-0.931-1.241-1.616-2.61-2.051-4.104C441.134,317.966,440.979,316.474,441.104,314.982z
					 M471.123,219.706c1.739-3.479,3.229-5.221,4.475-5.221c0.994,0.125,2.642,0.685,4.941,1.678
					c2.299,0.996,4.317,2.115,6.06,3.356c2.61,1.742,2.858,4.289,0.746,7.645c-0.871,1.369-2.083,3.234-3.636,5.593
					c-1.556,2.363-3.202,4.662-4.941,6.899c-1.74,2.237-3.447,4.195-5.127,5.873c-1.679,1.678-3.075,2.517-4.193,2.517
					c-2.61,0.125-4.136-1.086-4.568-3.636c-0.437-2.546-0.279-5.468,0.466-8.763c0.746-3.292,1.739-6.494,2.983-9.602
					C469.567,222.939,470.5,220.824,471.123,219.706z"/>
				<path fill="#4AC1EE" d="M495.733,290.373c2.357-0.373,4.877-1.182,7.551-2.426c2.672-1.24,5.188-2.732,7.552-4.475
					c2.359-1.74,4.475-3.666,6.339-5.779c1.865-2.111,3.231-4.227,4.104-6.34c0.373-0.746,0.898-1.212,1.585-1.398
					c0.682-0.187,1.305-0.154,1.862,0.094c0.562,0.25,1.025,0.686,1.398,1.305c0.373,0.625,0.373,1.308,0,2.052
					c-1.119,2.61-2.829,5.159-5.128,7.645c-2.301,2.488-4.848,4.756-7.646,6.807c-2.797,2.051-5.75,3.762-8.854,5.129
					c-3.108,1.369-6.03,2.235-8.763,2.607c0.867,4.727,1.521,9.666,1.957,14.822c0.435,5.162,0.62,10.319,0.56,15.479
					c-0.063,5.156-0.438,10.223-1.118,15.195c-0.685,4.971-1.585,9.57-2.704,13.797c-0.623,2.484-1.49,5.063-2.608,7.738
					c-1.118,2.67-2.487,4.813-4.104,6.434c-1.492,1.611-2.954,2.545-4.382,2.797c-1.431,0.246-2.954,0.373-4.568,0.373
					c-1.116,0-2.395-0.158-3.82-0.469c-1.432-0.312-2.77-0.775-4.01-1.396c-1.239-0.623-2.299-1.369-3.17-2.236
					c-0.866-0.871-1.306-1.805-1.306-2.799c0-4.6,0.373-9.881,1.119-15.848c0.871-8.701,2.051-17.777,3.542-27.223
					c1.492-9.445,3.229-18.896,5.221-28.342c1.987-9.444,4.227-18.707,6.713-27.782c2.484-9.072,5.156-17.649,8.02-25.73
					c1.491-4.102,2.89-7.333,4.193-9.695c1.307-2.36,2.452-3.542,3.449-3.542c0.868,0,2.205,0.28,4.008,0.839
					c1.803,0.56,3.604,1.212,5.407,1.958c1.802,0.746,3.386,1.556,4.755,2.424c1.366,0.871,2.053,1.678,2.053,2.424
					c0,0.373-0.125,0.685-0.373,0.932c-0.498,0.624-0.934,1.151-1.307,1.585c-0.373,0.437-0.746,0.964-1.119,1.585
					c-1.368,2.362-2.733,5.378-4.102,9.043c-1.369,3.667-2.769,7.77-4.195,12.306c-1.431,4.539-2.829,9.387-4.193,14.543
					C498.279,279.96,496.975,285.15,495.733,290.373z M484.919,364.207c0.373,0,0.746-0.344,1.119-1.024
					c0.372-0.685,0.713-1.464,1.023-2.33c0.311-0.871,0.62-1.742,0.934-2.61c0.309-0.871,0.527-1.49,0.652-1.863
					c2.483-7.832,3.943-16.066,4.382-24.705c0.435-8.639,0.152-16.996-0.839-25.079c-1.617,8.083-3.076,16.192-4.384,24.333
					c-1.305,8.141-2.395,16.314-3.263,24.52C483.923,361.283,484.048,364.207,484.919,364.207z"/>
				<path fill="#4AC1EE" d="M532.837,327.662c-5.594,0-10.161-1.088-13.704-3.264c-3.543-2.174-6.185-5.002-7.924-8.482
					c-1.742-3.479-2.736-7.488-2.983-12.026c-0.251-4.535,0.154-9.138,1.212-13.798c1.057-4.659,2.578-9.258,4.568-13.797
					c1.986-4.535,4.35-8.544,7.085-12.025c2.732-3.479,5.688-6.308,8.856-8.484c3.17-2.173,6.433-3.263,9.788-3.263
					c1.737,0,3.759,0.53,6.061,1.585c2.298,1.058,4.442,2.456,6.433,4.195c1.986,1.742,3.664,3.668,5.034,5.78
					c1.366,2.115,2.053,4.166,2.053,6.153c0,4.353-1.119,8.39-3.356,12.119s-5.099,6.992-8.577,9.789s-7.242,4.974-11.28,6.524
					c-4.04,1.558-7.86,2.33-11.467,2.33c-0.25,4.976,0.467,9.201,2.146,12.68c1.678,3.48,4.688,5.222,9.043,5.222
					c3.729,0,7.365-1.679,10.906-5.032c3.544-3.357,6.836-7.488,9.883-12.4c3.045-4.906,5.778-10.098,8.204-15.568
					c2.424-5.467,4.441-10.314,6.06-14.543c0.248-0.746,0.714-1.211,1.398-1.397c0.682-0.187,1.306-0.154,1.862,0.094
					c0.562,0.25,1.026,0.685,1.398,1.306c0.373,0.623,0.373,1.306,0,2.052c-1.742,4.6-3.947,10.008-6.618,16.221
					c-2.675,6.217-5.813,12.152-9.416,17.807c-3.606,5.658-7.645,10.441-12.12,14.357
					C542.905,325.705,538.058,327.662,532.837,327.662z M540.108,263.708c-1.864,1.369-3.638,3.263-5.313,5.687
					c-1.678,2.424-3.202,5.127-4.568,8.11c-1.367,2.984-2.517,6.152-3.447,9.51c-0.934,3.357-1.585,6.59-1.958,9.695
					c2.483,0,5.003-0.869,7.552-2.609c2.546-1.738,4.848-4.01,6.896-6.807c2.052-2.797,3.697-5.994,4.941-9.603
					c1.241-3.604,1.864-7.271,1.864-11c0-1.987-0.652-3.263-1.958-3.822C542.813,262.31,541.475,262.589,540.108,263.708z"/>
				<path fill="#4AC1EE" d="M434.067,324.339"/>
			</g>
		</g>
	</g>
</g>
</svg>
